<?xml version="1.0" standalone="no"?>
<!DOCTYPE svg PUBLIC "-//W3C//DTD SVG 20010904//EN"
 "http://www.w3.org/TR/2001/REC-SVG-20010904/DTD/svg10.dtd">
<svg version="1.0" xmlns="http://www.w3.org/2000/svg"
 width="711.000000pt" height="711.000000pt" viewBox="0 0 711.000000 711.000000"
 preserveAspectRatio="xMidYMid meet">
<metadata>
Created by potrace 1.14, written by Peter Selinger 2001-2017
</metadata>
<g transform="translate(0.000000,711.000000) scale(0.100000,-0.100000)"
fill="#000000" stroke="none">
<path d="M3502 6859 c-64 -8 -144 -48 -194 -95 -20 -18 -41 -34 -46 -34 -5 0
-20 -12 -34 -27 -28 -30 -77 -73 -83 -73 -2 0 -15 -10 -28 -22 -55 -52 -91
-83 -96 -83 -3 0 -18 -11 -32 -25 -44 -41 -70 -62 -154 -130 -44 -36 -84 -70
-90 -76 -9 -10 -174 -148 -200 -166 -5 -5 -24 -20 -41 -35 -17 -16 -53 -46
-80 -68 -93 -77 -139 -116 -182 -153 -24 -20 -55 -46 -69 -57 -14 -11 -38 -32
-54 -46 -15 -14 -51 -43 -78 -65 -28 -21 -51 -42 -51 -46 0 -4 -4 -8 -10 -8
-5 0 -19 -10 -32 -22 -13 -13 -41 -36 -62 -53 -22 -16 -48 -38 -58 -47 -10
-10 -20 -18 -23 -18 -2 0 -17 -12 -33 -27 -16 -16 -47 -43 -68 -60 -21 -18
-46 -39 -54 -47 -29 -26 -215 -181 -258 -214 -23 -19 -57 -48 -76 -65 -18 -18
-51 -46 -72 -63 -21 -18 -55 -46 -74 -64 -44 -41 -63 -57 -125 -105 -27 -22
-56 -47 -65 -55 -9 -8 -39 -34 -66 -56 -27 -23 -67 -58 -89 -78 -22 -19 -43
-36 -46 -36 -3 0 -21 -15 -40 -32 -42 -40 -85 -77 -164 -143 -33 -28 -66 -55
-72 -62 -7 -6 -21 -14 -31 -18 -21 -7 -92 -96 -110 -138 -7 -18 -13 -57 -13
-89 -1 -133 104 -246 238 -256 53 -3 68 0 112 24 28 15 77 52 109 83 32 31 68
65 80 75 l22 19 0 -1359 c0 -853 4 -1391 10 -1444 17 -144 40 -228 101 -373
86 -205 319 -459 489 -533 30 -14 64 -29 75 -34 57 -27 132 -51 226 -72 l104
-23 1655 0 1655 0 95 24 c231 58 387 142 536 288 172 170 287 400 330 661 14
85 16 271 17 1480 1 760 4 1382 8 1382 3 0 26 -19 51 -42 74 -69 101 -92 133
-112 17 -10 32 -22 35 -26 12 -16 91 -28 131 -19 134 30 211 127 210 262 -1
100 -42 172 -138 244 -21 15 -50 40 -65 55 -14 16 -29 28 -33 28 -7 0 -49 36
-102 88 -18 17 -36 32 -40 32 -5 0 -33 23 -63 51 -30 28 -60 54 -66 57 -14 9
-111 90 -141 120 -13 12 -26 22 -28 22 -3 0 -13 8 -24 18 -10 9 -37 33 -61 52
-23 19 -49 42 -58 50 -8 8 -27 24 -42 35 -15 11 -56 45 -90 75 -34 30 -79 69
-99 87 l-36 31 -1 424 -1 423 49 44 c48 43 75 82 85 124 10 46 9 114 -3 149
-7 20 -10 38 -7 41 8 8 -89 101 -122 116 -65 31 -111 34 -481 34 -310 0 -369
-3 -412 -17 -115 -38 -177 -127 -176 -251 0 -84 9 -123 32 -144 24 -22 62 -77
62 -90 0 -6 -9 -11 -20 -11 -11 0 -20 5 -20 10 0 6 -7 10 -15 10 -9 0 -18 7
-21 15 -4 8 -11 15 -16 15 -6 0 -21 10 -33 23 -12 12 -39 36 -61 54 -143 116
-172 141 -201 170 -18 18 -35 33 -38 33 -6 0 -47 35 -81 68 -13 12 -26 22 -30
22 -4 0 -25 17 -48 38 -23 20 -61 53 -85 72 -23 19 -48 40 -54 45 -7 6 -32 26
-57 45 -25 19 -54 43 -66 55 -107 105 -231 151 -362 134z m288 -1853 c19 -4
46 -9 60 -12 14 -3 36 -8 50 -10 35 -7 162 -47 243 -78 120 -46 263 -124 341
-186 229 -182 387 -374 496 -603 286 -601 173 -1325 -280 -1787 -225 -231
-454 -363 -760 -440 l-105 -27 0 -269 0 -269 296 -1 c196 -1 314 -6 348 -14
61 -14 160 -76 190 -118 83 -117 63 -276 -41 -330 l-45 -23 -954 0 c-525 0
-993 1 -1041 1 -83 0 -89 2 -122 31 -38 33 -76 118 -71 159 13 105 63 186 146
238 84 51 104 54 432 57 170 2 311 5 313 8 8 8 9 519 1 524 -4 2 -42 13 -85
23 -233 56 -464 170 -647 320 -122 100 -285 284 -338 381 -7 13 -24 42 -38 64
-48 76 -124 265 -144 355 -45 210 -49 241 -49 410 0 128 7 225 18 280 10 46
16 75 21 106 11 69 69 225 125 339 89 180 256 390 405 510 20 17 42 35 49 40
25 22 166 116 166 111 0 -3 9 3 20 14 11 11 27 20 35 20 8 0 15 4 15 8 0 4 23
16 50 27 28 11 50 24 50 29 0 5 3 7 6 4 3 -4 26 3 51 14 68 30 216 73 288 84
22 4 60 10 85 14 50 9 364 5 420 -4z"/>
<path d="M3380 4470 c-172 -36 -294 -90 -426 -189 -203 -151 -349 -376 -399
-616 -23 -107 -31 -316 -16 -413 36 -227 146 -438 313 -598 276 -266 714 -351
1085 -212 217 82 425 260 535 459 166 299 178 672 32 985 -62 132 -172 269
-299 370 -234 188 -554 270 -825 214z m220 -208 c32 -13 48 -32 60 -71 17 -59
-54 -128 -119 -115 -38 8 -81 56 -81 90 0 36 26 81 56 97 29 15 47 15 84 -1z
m-294 -53 c33 -31 48 -82 35 -119 -13 -39 -36 -62 -96 -94 -54 -29 -180 -141
-220 -196 -14 -19 -25 -30 -25 -26 0 4 -7 0 -16 -8 -8 -9 -26 -17 -40 -17 -13
-1 -30 -2 -36 -3 -30 -5 -67 24 -90 69 -18 36 -6 97 27 136 18 21 133 125 269
244 65 56 141 62 192 14z m337 -353 c21 -3 46 -10 55 -15 9 -5 22 -10 27 -11
31 -6 85 -34 85 -43 0 -6 3 -8 6 -4 3 3 17 -5 31 -19 13 -13 28 -24 33 -24 6
0 10 -7 10 -16 0 -8 5 -12 10 -9 6 3 10 1 10 -4 0 -6 9 -20 20 -31 12 -12 18
-25 15 -30 -4 -6 -1 -10 5 -10 6 0 8 -4 5 -10 -3 -5 -2 -10 4 -10 9 0 18 -24
38 -100 7 -26 11 -155 6 -164 -4 -5 -7 -27 -8 -49 -2 -21 -9 -43 -16 -48 -7
-4 -10 -11 -7 -15 12 -12 -31 -82 -85 -138 -52 -55 -168 -123 -187 -111 -6 3
-10 2 -10 -2 0 -11 -28 -15 -125 -16 -66 -1 -140 6 -140 13 0 1 -11 4 -25 6
-14 3 -26 9 -28 14 -2 6 -12 10 -23 10 -10 0 -19 4 -19 10 0 5 -3 9 -7 9 -20
-3 -34 2 -28 11 3 6 1 10 -5 10 -17 0 -87 69 -110 107 -11 19 -14 31 -8 28 7
-4 6 -1 -3 7 -18 15 -40 73 -32 82 4 3 2 6 -3 6 -22 0 -26 199 -6 265 9 28 15
53 14 58 -1 4 3 7 9 7 5 0 7 5 4 10 -3 6 -1 10 4 10 6 0 11 7 11 16 0 9 15 30
33 47 17 16 23 24 12 17 -14 -10 -12 -6 5 12 14 14 28 23 33 21 4 -2 7 3 7 12
0 9 5 13 10 10 6 -3 10 -2 10 3 0 5 20 17 45 28 25 10 45 22 45 27 0 5 7 7 15
3 8 -3 15 -2 15 3 0 4 6 8 13 9 61 7 112 15 115 17 3 3 69 -2 115 -9z m-692
-352 c25 -26 33 -44 37 -83 4 -44 1 -56 -22 -86 -47 -61 -111 -79 -177 -49
-124 55 -101 235 34 263 45 10 90 -6 128 -45z m1383 32 c49 -21 81 -71 81
-128 -1 -117 -134 -177 -230 -104 -129 99 -3 296 149 232z"/>
<path d="M3375 3726 c-119 -52 -151 -213 -59 -297 60 -54 134 -62 212 -23 172
86 112 335 -80 334 -24 -1 -57 -7 -73 -14z"/>
</g>
</svg>
